<svg xmlns="http://www.w3.org/2000/svg" version="1.1" xmlns:xlink="http://www.w3.org/1999/xlink" xmlns:svgjs="http://svgjs.dev/svgjs" width="1000" height="1000" viewBox="0 0 1000 1000"><rect width="1000" height="1000" fill="#ffffff"></rect><g transform="matrix(0.7,0,0,0.7,149.57575865931648,439.3307211514664)"><svg viewBox="0 0 396 69" data-background-color="#ffffff" preserveAspectRatio="xMidYMid meet" height="174" width="1000" xmlns="http://www.w3.org/2000/svg" xmlns:xlink="http://www.w3.org/1999/xlink"><defs></defs><g id="tight-bounds" transform="matrix(1,0,0,1,0.2399993870152457,-0.13070410058438142)"><svg viewBox="0 0 395.52 69.26140232980647" height="69.26140232980647" width="395.52"><g><svg viewBox="0 0 501.1876833278045 87.76537666290126" height="69.26140232980647" width="395.52"><g><rect width="3.2599175758181667" height="76.20727351337301" x="404.053815643503" y="5.779051574764125" fill="#000000" opacity="1" stroke-width="0" stroke="transparent" fill-opacity="1" class="rect-o-0" data-fill-palette-color="primary" rx="1%" id="o-0" data-palette-color="#5e1914"></rect></g><g transform="matrix(1,0,0,1,0,12.129657700878543)"><svg viewBox="0 0 395.52 63.506061261144175" height="63.506061261144175" width="395.52"><g><svg viewBox="0 0 395.52 63.506061261144175" height="63.506061261144175" width="395.52"><g><svg viewBox="0 0 395.52 36.148594704684314" height="36.148594704684314" width="395.52"><g transform="matrix(1,0,0,1,0,0)"><svg width="395.52" viewBox="2 -35.45000076293945 392.7699890136719 35.900001525878906" height="36.148594704684314" data-palette-color="#5e1914"><path d="M22.2-34.95L31.7-35Q31.7-34.95 31.75-34.25L31.75-34.25 28.6-33.9 28.6-0.95 32.25-0.75Q32.25-0.7 32.2 0L32.2 0 22.2 0.05Q22.2-0.4 22.25-0.65L22.25-0.65 24.85-1Q25.35-1.05 25.45-1.65L25.45-1.65 25.45-16.85 8.4-16.85 8.4-0.95 12.1-0.75Q12.1-0.7 12.05 0L12.05 0 2 0.05 2.05-0.65 4.65-1Q5.15-1.05 5.25-1.6L5.25-1.6 5.25-33.3Q5.15-33.9 4.65-33.95L4.65-33.95 2.05-34.2 2-34.95 12.05-35Q12.05-34.95 12.1-34.25L12.1-34.25 8.4-33.9 8.4-17.85 25.45-17.85 25.45-33.25Q25.35-33.9 24.85-33.95L24.85-33.95 22.25-34.2Q22.2-34.5 22.2-34.95L22.2-34.95ZM38.25-33.95L35.6-34.25 35.65-35 57.05-35 57-34.85 57.65-27.8 56.65-27.4 55.85-34 42.25-34 42.25-17.85 54.2-17.85Q54.45-17.8 54.65-17.98 54.85-18.15 54.85-18.45L54.85-18.45 55.05-21.9 55.85-22 55.85-13.45Q55.8-13.45 55.1-13.4L55.1-13.4 54.9-16.85 42.25-16.85 42.25-1 57.2-1 58.15-9 59.1-8.75 58.35 0 45.65 0 35.6 0.05 35.65-0.65 38.25-1Q38.75-1.05 38.85-1.65L38.85-1.65 38.85-33.3Q38.75-33.9 38.25-33.95L38.25-33.95ZM70.64 0L60.59 0.05 60.64-0.65 63.24-1Q63.59-1.05 63.84-1.65L63.84-1.65 74.64-35 77.94-35 89.44-0.95 92.9-0.75Q92.9-0.7 92.84 0L92.84 0 82.84 0.05Q82.84-0.4 82.89-0.65L82.89-0.65 85.5-1Q85.89-1.05 85.89-1.6L85.89-1.6 83.14-9.75 67.55-9.75 64.89-1.05 70.69-0.75Q70.69-0.7 70.64 0L70.64 0ZM82.8-10.75L75-34.05 67.84-10.75 82.8-10.75ZM94.84-34.95L104.89-35Q104.89-34.95 104.94-34.25L104.94-34.25 101.49-33.95 101.49-1 115.29-1 116.29-9 117.24-8.75 116.49 0 104.89 0 94.84 0.05 94.89-0.65 97.49-1Q97.99-1.05 98.09-1.65L98.09-1.65 98.09-33.3Q97.99-33.9 97.49-33.95L97.49-33.95 94.89-34.2 94.84-34.95ZM127.94-1.65L127.94-34 119.34-34 118.54-27.4 117.59-27.8 118.09-34 118.04-34 118.14-34.4 118.19-35 118.29-34.95 118.29-35 140.99-35 141.64-27.8 140.64-27.4 139.84-34 131.09-34 131.09-0.95 134.74-0.75Q134.74-0.7 134.69 0L134.69 0 124.69 0.05Q124.69-0.4 124.74-0.65L124.74-0.65 127.34-1Q127.84-1.05 127.94-1.65L127.94-1.65ZM164.34-34.95L173.84-35Q173.84-34.95 173.89-34.25L173.89-34.25 170.74-33.9 170.74-0.95 174.39-0.75Q174.39-0.7 174.34 0L174.34 0 164.34 0.05Q164.34-0.4 164.39-0.65L164.39-0.65 166.99-1Q167.49-1.05 167.59-1.65L167.59-1.65 167.59-16.85 150.54-16.85 150.54-0.95 154.24-0.75Q154.24-0.7 154.19 0L154.19 0 144.14 0.05 144.19-0.65 146.79-1Q147.29-1.05 147.39-1.6L147.39-1.6 147.39-33.3Q147.29-33.9 146.79-33.95L146.79-33.95 144.19-34.2 144.14-34.95 154.19-35Q154.19-34.95 154.24-34.25L154.24-34.25 150.54-33.9 150.54-17.85 167.59-17.85 167.59-33.25Q167.49-33.9 166.99-33.95L166.99-33.95 164.39-34.2Q164.34-34.5 164.34-34.95L164.34-34.95ZM196.33-33.95L193.68-34.25 193.73-35 205.88-35Q211.03-35 213.83-32.75 216.63-30.5 216.63-26.05L216.63-26.05Q216.63-23.15 214.41-20 212.18-16.85 210.23-15.95L210.23-15.95 219.48-0.9 221.93-0.75Q221.93-0.7 221.88 0L221.88 0 216.43 0.05 206.93-15.35 200.28-15.35 200.28-0.95 203.78-0.75Q203.78-0.7 203.73 0L203.73 0 193.68 0.05 193.73-0.65 196.33-1Q196.68-1.05 196.88-1.45L196.88-1.45 196.88-33.45Q196.73-33.9 196.33-33.95L196.33-33.95ZM205.63-34.25L205.63-34.25 200.28-34.25 200.28-16.1 208.83-16.1Q211.43-19.05 212.33-21.33 213.23-23.6 213.23-25.75L213.23-25.75Q213.23-29.95 211.28-32.1 209.33-34.25 205.63-34.25ZM227.38-33.95L224.73-34.25 224.78-35 246.18-35 246.13-34.85 246.78-27.8 245.78-27.4 244.98-34 231.38-34 231.38-17.85 243.33-17.85Q243.58-17.8 243.78-17.98 243.98-18.15 243.98-18.45L243.98-18.45 244.18-21.9 244.98-22 244.98-13.45Q244.93-13.45 244.23-13.4L244.23-13.4 244.03-16.85 231.38-16.85 231.38-1 246.33-1 247.28-9 248.23-8.75 247.48 0 234.78 0 224.73 0.05 224.78-0.65 227.38-1Q227.88-1.05 227.98-1.65L227.98-1.65 227.98-33.3Q227.88-33.9 227.38-33.95L227.38-33.95ZM266.13-34.3L266.13-34.3Q260.48-34.3 257.18-29.6 253.88-24.9 253.88-16L253.88-16Q253.88-5.2 258.83-2.05L258.83-2.05Q260.33-1.1 261.6-0.83 262.88-0.55 264.43-0.55L264.43-0.55Q269.38-0.55 274.78-1.75L274.78-1.75 274.93-1.05Q274.08-0.75 270.4-0.28 266.73 0.2 264.43 0.2 262.13 0.2 260.43-0.13 258.73-0.45 256.83-1.5 254.93-2.55 253.6-4.28 252.28-6 251.38-9 250.48-12 250.48-16L250.48-16Q250.48-24.85 254.53-29.8L254.53-29.8Q258.78-35 266.13-35L266.13-35Q268.38-35 271-34.58 273.63-34.15 274.73-33.75L274.73-33.75 275.33-26.55 274.38-26.2 273.73-31.55Q269.68-34.3 266.13-34.3ZM277.83-17.4L277.83-17.4Q277.83-25.65 282.05-30.55 286.28-35.45 292.58-35.45L292.58-35.45Q307.33-35.45 307.33-17.4L307.33-17.4Q307.33-9.1 303.13-4.33 298.93 0.45 292.58 0.45L292.58 0.45Q277.83 0.45 277.83-17.4ZM281.23-17.5L281.23-17.5Q281.23-0.55 292.58-0.55L292.58-0.55Q297.48-0.55 300.7-5.05 303.93-9.55 303.93-17.5L303.93-17.5Q303.93-34.45 292.58-34.45L292.58-34.45Q287.73-34.45 284.48-29.9 281.23-25.35 281.23-17.5ZM313.32-33.95L310.67-34.25 310.72-35 322.87-35Q328.02-35 330.82-32.75 333.62-30.5 333.62-26.05L333.62-26.05Q333.62-23.15 331.4-20 329.17-16.85 327.22-15.95L327.22-15.95 336.47-0.9 338.92-0.75Q338.92-0.7 338.87 0L338.87 0 333.42 0.05 323.92-15.35 317.27-15.35 317.27-0.95 320.77-0.75Q320.77-0.7 320.72 0L320.72 0 310.67 0.05 310.72-0.65 313.32-1Q313.67-1.05 313.87-1.45L313.87-1.45 313.87-33.45Q313.72-33.9 313.32-33.95L313.32-33.95ZM322.62-34.25L322.62-34.25 317.27-34.25 317.27-16.1 325.82-16.1Q328.42-19.05 329.32-21.33 330.22-23.6 330.22-25.75L330.22-25.75Q330.22-29.95 328.27-32.1 326.32-34.25 322.62-34.25ZM344.37-33.95L341.72-34.25 341.77-35 353.97-35Q360.72-35 364.8-31.08 368.87-27.15 368.87-18.3L368.87-18.3Q368.87-9.55 366.02-5.2L366.02-5.2Q363.52-1.4 358.22-0.4L358.22-0.4Q355.87 0 352.72 0L352.72 0 351.77 0 341.72 0.05 341.77-0.65 344.37-1Q344.87-1.05 344.97-1.65L344.97-1.65 344.97-33.25Q344.87-33.9 344.37-33.95L344.37-33.95ZM353.72-34.25L353.72-34.25 348.37-34.25 348.37-0.75 352.47-0.75Q354.87-0.75 356.55-1.03 358.22-1.3 360.05-2.33 361.87-3.35 362.92-5.15L362.92-5.15Q365.47-9.4 365.47-18.05L365.47-18.05Q365.47-27.05 361.92-30.8L361.92-30.8Q358.67-34.25 353.72-34.25ZM382.07-0.95L382.07-0.95Q385.77-0.95 388.57-3.13 391.37-5.3 391.37-9.75L391.37-9.75Q391.37-11.75 390.39-13.18 389.42-14.6 387.82-15.38 386.22-16.15 384.32-16.73 382.42-17.3 380.52-17.95 378.62-18.6 377.02-19.5 375.42-20.4 374.44-22.05 373.47-23.7 373.47-26L373.47-26Q373.47-30 376.22-32.55 378.97-35.1 383.57-35.1 388.17-35.1 392.37-34.05L392.37-34.05 392.92-27.8 391.97-27.4 391.47-31.35Q387.77-34.1 384.52-34.1 381.27-34.1 379.07-32.13 376.87-30.15 376.87-26.2L376.87-26.2Q376.87-23.9 378.72-22.55 380.57-21.2 383.19-20.45 385.82-19.7 388.44-18.75 391.07-17.8 392.92-15.55 394.77-13.3 394.77-9.7L394.77-9.7Q394.77-4.85 391.32-2.4 387.87 0.05 382.22 0.05 376.57 0.05 372.42-3L372.42-3 372.47-8.3 373.42-8.55 373.52-5.7Q374.87-3.8 377.22-2.38 379.57-0.95 382.07-0.95Z" opacity="1" transform="matrix(1,0,0,1,0,0)" fill="#000000" class="undefined-text-0" data-fill-palette-color="primary" id="text-0"></path></svg></g></svg></g><g transform="matrix(1,0,0,1,163.31020800000002,44.68241034818737)"><svg viewBox="0 0 232.20979199999996 18.823650912956808" height="18.823650912956808" width="232.20979199999996"><g transform="matrix(1,0,0,1,0,0)"><svg width="232.20979199999996" viewBox="0.5900000333786011 -37.5 587.8199462890625 47.65999984741211" height="18.823650912956808" data-palette-color="#8d021f"><path d="M4.15-35.55L14.92-16.16 25.78-35.55 29.25-35.55 16.43-13.4 16.43 0 13.4 0 13.4-13.4 0.59-35.55 4.15-35.55ZM30.56-12.79L30.56-13.6Q30.56-17.46 32.03-20.46 33.49-23.46 36.13-25.18 38.77-26.9 42.33-26.9L42.33-26.9Q45.92-26.9 48.58-25.18 51.24-23.46 52.7-20.46 54.15-17.46 54.15-13.6L54.15-13.6 54.15-12.79Q54.15-8.96 52.7-5.96 51.24-2.95 48.59-1.23 45.94 0.49 42.38 0.49L42.38 0.49Q38.79 0.49 36.14-1.23 33.49-2.95 32.03-5.96 30.56-8.96 30.56-12.79L30.56-12.79ZM33.49-13.6L33.49-12.79Q33.49-9.91 34.52-7.45 35.54-4.98 37.52-3.48 39.5-1.98 42.38-1.98L42.38-1.98Q45.24-1.98 47.2-3.48 49.17-4.98 50.19-7.45 51.22-9.91 51.22-12.79L51.22-12.79 51.22-13.6Q51.22-16.46 50.19-18.92 49.17-21.39 47.19-22.91 45.21-24.44 42.33-24.44L42.33-24.44Q39.48-24.44 37.5-22.91 35.52-21.39 34.51-18.92 33.49-16.46 33.49-13.6L33.49-13.6ZM77.12-6.1L77.12-26.42 80.05-26.42 80.05 0 77.22 0 77.12-6.1ZM77.66-10.99L79.17-11.04Q79.17-7.71 78.12-5.11 77.07-2.51 74.78-1.01 72.48 0.49 68.77 0.49L68.77 0.49Q64.89 0.49 62.48-1.82 60.08-4.13 60.08-9.52L60.08-9.52 60.08-26.42 63.01-26.42 63.01-9.47Q63.01-6.64 63.84-5.03 64.67-3.42 66.05-2.73 67.43-2.05 69.11-2.05L69.11-2.05Q72.33-2.05 74.2-3.3 76.07-4.54 76.86-6.59 77.66-8.64 77.66-10.99L77.66-10.99ZM90.57-22.05L90.57 0 87.64 0 87.64-26.42 90.5-26.42 90.57-22.05ZM99.92-26.61L99.85-23.95Q99.36-24.02 98.89-24.07 98.43-24.12 97.89-24.12L97.89-24.12Q95.38-24.12 93.67-22.9 91.96-21.68 91.07-19.63 90.18-17.58 90.1-15.04L90.1-15.04 89.01-14.65Q89.01-18.09 89.97-20.86 90.93-23.63 92.92-25.27 94.91-26.9 97.99-26.9L97.99-26.9Q98.55-26.9 99.1-26.82 99.65-26.73 99.92-26.61L99.92-26.61ZM119.54-21.34L119.54 10.16 116.61 10.16 116.61-26.42 119.35-26.42 119.54-21.34ZM137.9-13.45L137.9-12.94Q137.9-8.98 136.72-5.96 135.53-2.93 133.28-1.22 131.02 0.49 127.82 0.49L127.82 0.49Q124.65 0.49 122.41-0.79 120.18-2.08 118.88-4.32 117.59-6.57 117.18-9.47L117.18-9.47 117.18-16.28Q117.66-19.48 118.98-21.86 120.3-24.24 122.49-25.57 124.67-26.9 127.77-26.9L127.77-26.9Q130.99-26.9 133.25-25.26 135.51-23.61 136.71-20.58 137.9-17.55 137.9-13.45L137.9-13.45ZM134.95-12.94L134.95-13.45Q134.95-16.53 134.11-19.01 133.26-21.48 131.53-22.92 129.8-24.37 127.11-24.37L127.11-24.37Q125.01-24.37 123.53-23.66 122.06-22.95 121.09-21.81 120.13-20.68 119.57-19.34 119.01-17.99 118.74-16.72L118.74-16.72 118.74-8.89Q119.2-7.03 120.21-5.46 121.23-3.88 122.94-2.93 124.65-1.98 127.16-1.98L127.16-1.98Q129.82-1.98 131.54-3.44 133.26-4.91 134.11-7.39 134.95-9.86 134.95-12.94L134.95-12.94ZM154.57 0.49L154.57 0.49Q151.13 0.49 148.46-1.18 145.79-2.86 144.26-5.77 142.73-8.69 142.73-12.48L142.73-12.48 142.73-13.53Q142.73-17.6 144.31-20.61 145.88-23.61 148.46-25.26 151.03-26.9 154.04-26.9L154.04-26.9Q157.41-26.9 159.75-25.35 162.09-23.8 163.3-21.07 164.51-18.33 164.51-14.82L164.51-14.82 164.51-13.04 144.52-13.04 144.52-15.5 161.58-15.5 161.58-15.84Q161.53-18.07 160.69-20.02 159.85-21.97 158.19-23.21 156.53-24.44 154.04-24.44L154.04-24.44Q151.57-24.44 149.67-23.05 147.76-21.66 146.71-19.2 145.66-16.75 145.66-13.53L145.66-13.53 145.66-12.48Q145.66-9.55 146.8-7.18 147.93-4.81 149.99-3.39 152.04-1.98 154.7-1.98L154.7-1.98Q157.04-1.98 158.85-2.84 160.65-3.71 162.09-5.59L162.09-5.59 163.95-4.2Q162.66-2.27 160.4-0.89 158.14 0.49 154.57 0.49ZM173.13-22.05L173.13 0 170.2 0 170.2-26.42 173.05-26.42 173.13-22.05ZM182.48-26.61L182.4-23.95Q181.92-24.02 181.45-24.07 180.99-24.12 180.45-24.12L180.45-24.12Q177.94-24.12 176.23-22.9 174.52-21.68 173.63-19.63 172.74-17.58 172.66-15.04L172.66-15.04 171.56-14.65Q171.56-18.09 172.53-20.86 173.49-23.63 175.48-25.27 177.47-26.9 180.55-26.9L180.55-26.9Q181.11-26.9 181.66-26.82 182.21-26.73 182.48-26.61L182.48-26.61ZM202.86-6.74L202.86-6.74Q202.86-7.81 202.31-8.86 201.76-9.91 200.25-10.79 198.73-11.67 195.78-12.3L195.78-12.3Q192.85-12.92 190.79-13.82 188.73-14.72 187.65-16.14 186.58-17.55 186.58-19.73L186.58-19.73Q186.58-21.7 187.7-23.33 188.82-24.95 190.92-25.93 193.02-26.9 195.88-26.9L195.88-26.9Q198.93-26.9 201.12-25.88 203.3-24.85 204.47-23.07 205.64-21.29 205.64-19.02L205.64-19.02 202.69-19.02Q202.69-21.07 200.93-22.75 199.17-24.44 195.88-24.44L195.88-24.44Q193.61-24.44 192.19-23.74 190.78-23.05 190.13-21.98 189.48-20.92 189.48-19.82L189.48-19.82Q189.48-18.65 190.02-17.74 190.56-16.82 192.07-16.09 193.58-15.36 196.54-14.67L196.54-14.67Q199.74-13.96 201.77-12.95 203.81-11.94 204.8-10.46 205.79-8.98 205.79-6.88L205.79-6.88Q205.79-4.71 204.58-3.04 203.37-1.37 201.19-0.44 199 0.49 196.02 0.49L196.02 0.49Q192.68 0.49 190.37-0.62 188.07-1.73 186.88-3.54 185.7-5.35 185.7-7.42L185.7-7.42 188.6-7.42Q188.75-5.35 189.91-4.16 191.07-2.98 192.73-2.48 194.39-1.98 196.02-1.98L196.02-1.98Q198.27-1.98 199.78-2.65 201.3-3.32 202.08-4.41 202.86-5.49 202.86-6.74ZM210.77-12.79L210.77-13.6Q210.77-17.46 212.23-20.46 213.7-23.46 216.33-25.18 218.97-26.9 222.54-26.9L222.54-26.9Q226.12-26.9 228.79-25.18 231.45-23.46 232.9-20.46 234.35-17.46 234.35-13.6L234.35-13.6 234.35-12.79Q234.35-8.96 232.9-5.96 231.45-2.95 228.8-1.23 226.15 0.49 222.58 0.49L222.58 0.49Q219 0.49 216.35-1.23 213.7-2.95 212.23-5.96 210.77-8.96 210.77-12.79L210.77-12.79ZM213.7-13.6L213.7-12.79Q213.7-9.91 214.72-7.45 215.75-4.98 217.73-3.48 219.7-1.98 222.58-1.98L222.58-1.98Q225.44-1.98 227.41-3.48 229.37-4.98 230.4-7.45 231.42-9.91 231.42-12.79L231.42-12.79 231.42-13.6Q231.42-16.46 230.4-18.92 229.37-21.39 227.39-22.91 225.42-24.44 222.54-24.44L222.54-24.44Q219.68-24.44 217.7-22.91 215.72-21.39 214.71-18.92 213.7-16.46 213.7-13.6L213.7-13.6ZM243.31-20.78L243.31 0 240.38 0 240.38-26.42 243.19-26.42 243.31-20.78ZM242.68-14.87L241.36-15.6Q241.55-18.7 242.89-21.26 244.24-23.83 246.54-25.37 248.85-26.9 251.88-26.9L251.88-26.9Q254.54-26.9 256.42-25.93 258.3-24.95 259.31-22.81 260.33-20.68 260.33-17.19L260.33-17.19 260.33 0 257.4 0 257.4-17.21Q257.4-19.95 256.64-21.51 255.88-23.07 254.49-23.73 253.1-24.39 251.2-24.39L251.2-24.39Q249.1-24.39 247.52-23.47 245.95-22.56 244.88-21.11 243.82-19.65 243.26-17.99 242.7-16.33 242.68-14.87L242.68-14.87ZM283.96-4.74L283.96-18.36Q283.96-21.19 282.2-22.83 280.44-24.46 277.15-24.46L277.15-24.46Q275.09-24.46 273.5-23.74 271.9-23.02 270.98-21.81 270.07-20.61 270.07-19.12L270.07-19.12 267.14-19.14Q267.14-21.14 268.42-22.91 269.7-24.68 271.98-25.79 274.26-26.9 277.27-26.9L277.27-26.9Q280.1-26.9 282.26-25.95 284.42-25 285.65-23.1 286.89-21.19 286.89-18.31L286.89-18.31 286.89-5.54Q286.89-4.17 287.09-2.71 287.3-1.25 287.69-0.29L287.69-0.29 287.69 0 284.57 0Q284.27-0.88 284.12-2.21 283.96-3.54 283.96-4.74L283.96-4.74ZM284.64-15.38L284.69-13.13 278.95-13.13Q274.48-13.13 271.96-11.56 269.43-9.99 269.43-7.28L269.43-7.28Q269.43-5.13 271.03-3.61 272.63-2.1 275.36-2.1L275.36-2.1Q277.8-2.1 279.67-2.99 281.54-3.88 282.75-5.37 283.96-6.86 284.4-8.59L284.4-8.59 285.67-6.91Q285.35-5.69 284.51-4.41 283.66-3.13 282.32-2.01 280.98-0.9 279.16-0.21 277.34 0.49 275.05 0.49L275.05 0.49Q272.46 0.49 270.54-0.49 268.62-1.46 267.56-3.16 266.5-4.86 266.5-7.01L266.5-7.01Q266.5-10.91 269.74-13.15 272.97-15.38 278.56-15.38L278.56-15.38 284.64-15.38ZM297.94-37.5L297.94 0 295.04 0 295.04-37.5 297.94-37.5ZM321.01-37.5L321.01 0 318.08 0 318.08-37.5 321.01-37.5ZM320.38-14.87L319.06-15.6Q319.25-18.7 320.59-21.26 321.94-23.83 324.24-25.37 326.55-26.9 329.58-26.9L329.58-26.9Q332.24-26.9 334.12-25.93 336-24.95 337.01-22.81 338.03-20.68 338.03-17.19L338.03-17.19 338.03 0 335.1 0 335.1-17.21Q335.1-19.95 334.34-21.51 333.58-23.07 332.19-23.73 330.8-24.39 328.9-24.39L328.9-24.39Q326.8-24.39 325.22-23.47 323.65-22.56 322.58-21.11 321.52-19.65 320.96-17.99 320.4-16.33 320.38-14.87L320.38-14.87ZM355.75 0.49L355.75 0.49Q352.31 0.49 349.63-1.18 346.96-2.86 345.43-5.77 343.91-8.69 343.91-12.48L343.91-12.48 343.91-13.53Q343.91-17.6 345.48-20.61 347.06-23.61 349.63-25.26 352.21-26.9 355.21-26.9L355.21-26.9Q358.58-26.9 360.92-25.35 363.27-23.8 364.48-21.07 365.69-18.33 365.69-14.82L365.69-14.82 365.69-13.04 345.69-13.04 345.69-15.5 362.76-15.5 362.76-15.84Q362.71-18.07 361.86-20.02 361.02-21.97 359.36-23.21 357.7-24.44 355.21-24.44L355.21-24.44Q352.75-24.44 350.84-23.05 348.94-21.66 347.89-19.2 346.84-16.75 346.84-13.53L346.84-13.53 346.84-12.48Q346.84-9.55 347.97-7.18 349.11-4.81 351.16-3.39 353.21-1.98 355.87-1.98L355.87-1.98Q358.21-1.98 360.02-2.84 361.83-3.71 363.27-5.59L363.27-5.59 365.12-4.2Q363.83-2.27 361.57-0.89 359.31 0.49 355.75 0.49ZM387.46-4.74L387.46-18.36Q387.46-21.19 385.7-22.83 383.94-24.46 380.65-24.46L380.65-24.46Q378.6-24.46 377-23.74 375.4-23.02 374.48-21.81 373.57-20.61 373.57-19.12L373.57-19.12 370.64-19.14Q370.64-21.14 371.92-22.91 373.2-24.68 375.48-25.79 377.77-26.9 380.77-26.9L380.77-26.9Q383.6-26.9 385.76-25.95 387.92-25 389.16-23.1 390.39-21.19 390.39-18.31L390.39-18.31 390.39-5.54Q390.39-4.17 390.6-2.71 390.8-1.25 391.2-0.29L391.2-0.29 391.2 0 388.07 0Q387.78-0.88 387.62-2.21 387.46-3.54 387.46-4.74L387.46-4.74ZM388.14-15.38L388.19-13.13 382.46-13.13Q377.99-13.13 375.46-11.56 372.93-9.99 372.93-7.28L372.93-7.28Q372.93-5.13 374.53-3.61 376.13-2.1 378.87-2.1L378.87-2.1Q381.31-2.1 383.18-2.99 385.04-3.88 386.25-5.37 387.46-6.86 387.9-8.59L387.9-8.59 389.17-6.91Q388.85-5.69 388.01-4.41 387.17-3.13 385.82-2.01 384.48-0.9 382.66-0.21 380.84 0.49 378.55 0.49L378.55 0.49Q375.96 0.49 374.04-0.49 372.13-1.46 371.07-3.16 370-4.86 370-7.01L370-7.01Q370-10.91 373.24-13.15 376.47-15.38 382.06-15.38L382.06-15.38 388.14-15.38ZM401.45-37.5L401.45 0 398.54 0 398.54-37.5 401.45-37.5ZM419.44-26.42L419.44-24.02 406.18-24.02 406.18-26.42 419.44-26.42ZM411.01-33.2L413.94-33.2 413.94-6.42Q413.94-4.59 414.43-3.65 414.92-2.71 415.71-2.39 416.51-2.08 417.41-2.08L417.41-2.08Q418.07-2.08 418.67-2.16 419.27-2.25 419.75-2.32L419.75-2.32 419.88 0.1Q419.34 0.27 418.49 0.38 417.63 0.49 416.78 0.49L416.78 0.49Q415.09 0.49 413.8-0.13 412.5-0.76 411.76-2.28 411.01-3.81 411.01-6.45L411.01-6.45 411.01-33.2ZM428.42-37.5L428.42 0 425.49 0 425.49-37.5 428.42-37.5ZM427.78-14.87L426.47-15.6Q426.66-18.7 428-21.26 429.35-23.83 431.65-25.37 433.96-26.9 436.99-26.9L436.99-26.9Q439.65-26.9 441.53-25.93 443.41-24.95 444.42-22.81 445.44-20.68 445.44-17.19L445.44-17.19 445.44 0 442.51 0 442.51-17.21Q442.51-19.95 441.75-21.51 440.99-23.07 439.6-23.73 438.21-24.39 436.31-24.39L436.31-24.39Q434.21-24.39 432.63-23.47 431.06-22.56 429.99-21.11 428.93-19.65 428.37-17.99 427.81-16.33 427.78-14.87L427.78-14.87ZM472.46-6.2L478.8-26.42 480.88-26.42 479.66-20.95 472.99 0 470.94 0 472.46-6.2ZM465.87-26.42L471.43-6.08 472.63 0 470.5 0 462.84-26.42 465.87-26.42ZM488.81-6.15L494.26-26.42 497.26-26.42 489.6 0 487.5 0 488.81-6.15ZM481.32-26.42L487.59-6.37 489.16 0 487.11 0 480.29-20.97 479.15-26.42 481.32-26.42ZM518.91-4.74L518.91-18.36Q518.91-21.19 517.16-22.83 515.4-24.46 512.1-24.46L512.1-24.46Q510.05-24.46 508.45-23.74 506.85-23.02 505.94-21.81 505.02-20.61 505.02-19.12L505.02-19.12 502.09-19.14Q502.09-21.14 503.38-22.91 504.66-24.68 506.94-25.79 509.22-26.9 512.23-26.9L512.23-26.9Q515.06-26.9 517.22-25.95 519.38-25 520.61-23.1 521.84-21.19 521.84-18.31L521.84-18.31 521.84-5.54Q521.84-4.17 522.05-2.71 522.26-1.25 522.65-0.29L522.65-0.29 522.65 0 519.53 0Q519.23-0.88 519.07-2.21 518.91-3.54 518.91-4.74L518.91-4.74ZM519.6-15.38L519.65-13.13 513.91-13.13Q509.44-13.13 506.92-11.56 504.39-9.99 504.39-7.28L504.39-7.28Q504.39-5.13 505.99-3.61 507.59-2.1 510.32-2.1L510.32-2.1Q512.76-2.1 514.63-2.99 516.5-3.88 517.71-5.37 518.91-6.86 519.35-8.59L519.35-8.59 520.62-6.91Q520.31-5.69 519.46-4.41 518.62-3.13 517.28-2.01 515.94-0.9 514.12-0.21 512.3 0.49 510 0.49L510 0.49Q507.42 0.49 505.5-0.49 503.58-1.46 502.52-3.16 501.46-4.86 501.46-7.01L501.46-7.01Q501.46-10.91 504.69-13.15 507.93-15.38 513.52-15.38L513.52-15.38 519.6-15.38ZM532.9-37.5L532.9 0 530 0 530-37.5 532.9-37.5ZM544.13-37.5L544.13 0 541.22 0 541.22-37.5 544.13-37.5ZM562.32 0.49L562.32 0.49Q558.87 0.49 556.2-1.18 553.53-2.86 552-5.77 550.47-8.69 550.47-12.48L550.47-12.48 550.47-13.53Q550.47-17.6 552.05-20.61 553.62-23.61 556.2-25.26 558.78-26.9 561.78-26.9L561.78-26.9Q565.15-26.9 567.49-25.35 569.83-23.8 571.04-21.07 572.25-18.33 572.25-14.82L572.25-14.82 572.25-13.04 552.26-13.04 552.26-15.5 569.32-15.5 569.32-15.84Q569.27-18.07 568.43-20.02 567.59-21.97 565.93-23.21 564.27-24.44 561.78-24.44L561.78-24.44Q559.31-24.44 557.41-23.05 555.5-21.66 554.45-19.2 553.4-16.75 553.4-13.53L553.4-13.53 553.4-12.48Q553.4-9.55 554.54-7.18 555.67-4.81 557.73-3.39 559.78-1.98 562.44-1.98L562.44-1.98Q564.78-1.98 566.59-2.84 568.39-3.71 569.83-5.59L569.83-5.59 571.69-4.2Q570.4-2.27 568.14-0.89 565.88 0.49 562.32 0.49ZM587.97-26.42L587.97-24.02 574.72-24.02 574.72-26.42 587.97-26.42ZM579.55-33.2L582.48-33.2 582.48-6.42Q582.48-4.59 582.97-3.65 583.46-2.71 584.25-2.39 585.04-2.08 585.95-2.08L585.95-2.08Q586.6-2.08 587.2-2.16 587.8-2.25 588.29-2.32L588.29-2.32 588.41 0.1Q587.87 0.27 587.02 0.38 586.17 0.49 585.31 0.49L585.31 0.49Q583.63 0.49 582.33-0.13 581.04-0.76 580.29-2.28 579.55-3.81 579.55-6.45L579.55-6.45 579.55-33.2Z" opacity="1" transform="matrix(1,0,0,1,0,0)" fill="#000000" class="undefined-text-1" data-fill-palette-color="secondary" id="text-1"></path></svg></g></svg></g></svg></g></svg></g><g transform="matrix(1,0,0,1,415.8475488628242,0)"><svg viewBox="0 0 85.34013446498022 87.76537666290126" height="87.76537666290126" width="85.34013446498022"><g><svg xmlns="http://www.w3.org/2000/svg" xmlns:xlink="http://www.w3.org/1999/xlink" version="1.1" x="0" y="0" viewBox="6.242998123168945 5 87.51300048828125 89.99999237060547" enable-background="new 0 0 100 100" xml:space="preserve" height="87.76537666290126" width="85.34013446498022" class="icon-icon-0" data-fill-palette-color="accent" id="icon-0"><g fill="#ed2647" data-fill-palette-color="accent"><rect x="44.882" y="47.958" width="37.808" height="3.55" fill="#000000" data-fill-palette-color="accent"></rect><rect x="44.882" y="54.529" width="37.808" height="3.548" fill="#000000" data-fill-palette-color="accent"></rect><rect x="44.882" y="61.805" width="37.808" height="3.551" fill="#000000" data-fill-palette-color="accent"></rect><rect x="79.145" y="15.918" width="3.546" height="22.013" fill="#000000" data-fill-palette-color="accent"></rect><rect x="71.157" y="24.438" width="3.546" height="13.493" fill="#000000" data-fill-palette-color="accent"></rect><rect x="63.169" y="32.426" width="3.546" height="5.505" fill="#000000" data-fill-palette-color="accent"></rect><path d="M46.806 16.112v10.01h10.008C56.309 20.812 52.115 16.624 46.806 16.112z" fill="#000000" data-fill-palette-color="accent"></path><path d="M56.814 28.253H46.271l-7.566 7.564c1.926 1.572 4.354 2.555 7.036 2.555C51.553 38.372 56.273 33.924 56.814 28.253z" fill="#000000" data-fill-palette-color="accent"></path><path d="M44.675 16.112c-5.671 0.544-10.117 5.265-10.117 11.075 0 2.728 1.013 5.193 2.634 7.134l7.483-7.486V16.112z" fill="#000000" data-fill-palette-color="accent"></path><path d="M85.586 5H31.63c-4.502 0-8.169 3.667-8.169 8.169v37.813c0.031 0 0.059-0.004 0.09-0.004 0.495 0 0.982 0.031 1.466 0.074-0.484-0.04-0.971-0.074-1.466-0.074-9.558 0-17.308 7.748-17.308 17.307 0 9.559 7.75 17.308 17.308 17.308 0.494 0 0.979-0.033 1.462-0.074-0.482 0.044-0.968 0.074-1.462 0.074-0.031 0-0.059-0.004-0.09-0.004v1.242c0 4.503 3.667 8.169 8.169 8.169h38.339c1.777 0 3.45-0.662 5.275-2.194 1.826-1.533 14.866-14.862 16.198-16.509 1.961-2.421 2.314-3.841 2.314-6.148V13.169C93.757 8.667 90.093 5 85.586 5zM26.362 51.227c-0.259-0.043-0.517-0.089-0.779-0.119C25.845 51.14 26.104 51.183 26.362 51.227zM19.95 77.19l-7.446-7.446 4.518-4.518 3.024 3.024 10.431-9.997 4.424 4.614L19.95 77.19zM25.587 85.463c0.246-0.029 0.488-0.072 0.731-0.111C26.076 85.392 25.833 85.432 25.587 85.463zM31.63 90.74c-2.155 0-3.909-1.754-3.909-3.909v-1.765c-0.006 0.001-0.012 0.002-0.017 0.004 7.549-1.863 13.154-8.661 13.154-16.785 0-8.129-5.61-14.929-13.165-16.787 0.009 0.002 0.019 0.004 0.028 0.006V13.169c0-2.155 1.753-3.909 3.909-3.909h53.956c2.157 0 3.909 1.753 3.909 3.909l0.018 58.235c-0.097 0.406-0.431 1.016-0.938 1.766h-10.08c-3.333 0-6.04 2.704-6.04 6.038v10.538c-0.722 0.521-1.312 0.87-1.721 0.994H31.63z" fill="#000000" data-fill-palette-color="accent"></path></g></svg></g></svg></g></svg></g></svg><rect width="395.52" height="69.26140232980647" fill="none" stroke="none" visibility="hidden"></rect></g></svg></g></svg>